<svg width="1512" height="162" viewBox="0 0 1512 162" fill="none" xmlns="http://www.w3.org/2000/svg">
<path d="M1669.24 95.9694V352.274H-60V100.143C118.105 77.9041 449.712 44.1546 794.622 48.5669C1152.9 53.1456 1496.81 80.274 1669.24 95.9694Z" fill="#009090"/>
<path d="M544.634 53.8338C544.634 53.8338 570.314 4.15017 600.123 0.964467C620.463 -1.20558 900.994 0.964467 900.994 0.964467C900.994 0.964467 949.684 4.78285 969.836 53.5008L544.634 53.8282V53.8338Z" fill="#009090"/>
<path d="M1639.95 108.074V576.916H-60V128.537C-51.6972 127.416 -42.956 126.234 -33.8096 124.996C-11.493 121.993 13.26 118.686 40.0609 115.206C62.1666 112.336 85.6598 109.35 110.335 106.32C139.767 102.702 170.869 99.0219 203.27 95.3922C206.861 94.9926 210.468 94.593 214.092 94.1934C221.402 93.3831 228.778 92.5784 236.215 91.7792C238.312 91.5516 240.422 91.3296 242.536 91.1076C243.008 91.0521 243.463 91.0022 243.935 90.9522H243.946C244.911 90.8523 245.877 90.7468 246.843 90.6469H246.854C344.617 80.2407 452.115 70.778 560.063 65.3112H560.978C574.709 64.6175 588.451 63.9903 602.176 63.4242C602.709 63.4075 603.242 63.3853 603.769 63.3631C604.335 63.341 604.901 63.3188 605.467 63.2966C614.619 62.9303 623.76 62.5973 632.89 62.2976C633.456 62.2754 634.016 62.2587 634.583 62.242C635.115 62.2254 635.648 62.2088 636.175 62.1921C645.427 61.8924 654.668 61.6315 663.887 61.404C664.375 61.3929 664.858 61.3818 665.346 61.3707C665.862 61.3596 666.373 61.3485 666.883 61.3319C677.168 61.0932 687.424 60.8934 697.647 60.7491C698.158 60.738 698.668 60.7324 699.179 60.7269C699.667 60.7158 700.156 60.7103 700.644 60.7047C716.833 60.4827 732.934 60.3828 748.924 60.4217C754.646 60.4272 760.351 60.4549 766.04 60.5104C771.207 60.5437 776.363 60.5993 781.502 60.6714C791.731 60.8102 801.998 60.9766 812.288 61.1598C812.787 61.1653 813.287 61.1765 813.786 61.1876C814.308 61.1931 814.83 61.2042 815.357 61.2153C825.314 61.3929 835.298 61.5927 845.299 61.8147C845.821 61.8258 846.343 61.8369 846.87 61.848C847.37 61.8591 847.869 61.8702 848.368 61.8813C857.248 62.0756 866.145 62.2864 875.053 62.514C875.591 62.5251 876.124 62.5417 876.657 62.5528C877.229 62.5695 877.8 62.5861 878.372 62.5972C887.385 62.8303 896.409 63.0746 905.439 63.3354C906.011 63.3465 906.588 63.3631 907.16 63.3853C907.698 63.3964 908.231 63.4131 908.769 63.4297C927.062 63.957 945.366 64.5398 963.653 65.178C996.193 66.2991 1028.65 67.5756 1060.82 68.9797C1081.67 69.8844 1102.4 70.8445 1122.94 71.8491C1198.58 75.5398 1271.72 79.8189 1339.34 84.2589C1342.62 84.4753 1345.87 84.6918 1349.11 84.9138H1349.13C1349.83 84.9582 1350.54 85.0026 1351.24 85.047C1357.8 85.4855 1364.3 85.9239 1370.74 86.3624H1370.76C1401.43 88.4547 1430.81 90.5692 1458.59 92.6616C1498.58 95.6752 1535.25 98.6445 1567.7 101.447C1594.93 103.8 1619.19 106.032 1639.93 108.074H1639.95Z" fill="#001616"/>
<path d="M558.015 65.3112C558.015 65.3112 583.317 15.9606 603.569 13.0691C623.821 10.1775 904.44 13.0691 904.44 13.0691C904.44 13.0691 943.69 16.8875 963.847 65.6054L558.015 65.3112Z" fill="#001616"/>
<path d="M597.381 48.1783C597.381 36.4345 606.899 26.9163 618.643 26.9163C630.387 26.9163 639.905 36.4345 639.905 48.1783C639.905 59.9221 630.387 69.4404 618.643 69.4404C606.899 69.4404 597.381 59.9221 597.381 48.1783Z" fill="#001616"/>
<path d="M601.091 153.967C601.091 148.711 605.353 144.454 610.603 144.454C615.854 144.454 620.116 148.711 620.116 153.967C620.116 159.223 615.854 163.479 610.603 163.479C605.353 163.479 601.091 159.223 601.091 153.967Z" fill="#009090"/>
<path d="M639.586 153.967C639.586 148.711 643.848 144.454 649.098 144.454C654.349 144.454 658.611 148.711 658.611 153.967C658.611 159.223 654.354 163.479 649.098 163.479C643.842 163.479 639.586 159.223 639.586 153.967Z" fill="#699FF0"/>
<path d="M695.121 156.519C696.541 151.461 693.593 146.209 688.535 144.788C683.477 143.368 678.225 146.316 676.804 151.374C675.383 156.432 678.332 161.684 683.39 163.105C688.448 164.526 693.7 161.577 695.121 156.519Z" fill="#009090"/>
<path d="M839.085 156.733C840.599 151.702 837.748 146.396 832.718 144.882C827.687 143.368 822.381 146.219 820.867 151.25C819.353 156.281 822.204 161.586 827.235 163.101C832.265 164.615 837.571 161.764 839.085 156.733Z" fill="#009090"/>
<path d="M877.816 156.008C878.907 150.869 875.626 145.818 870.487 144.727C865.348 143.635 860.297 146.917 859.205 152.056C858.114 157.195 861.395 162.246 866.534 163.337C871.674 164.428 876.724 161.147 877.816 156.008Z" fill="#E7EEFD"/>
<path d="M895.815 153.967C895.815 148.711 900.078 144.454 905.328 144.454C910.578 144.454 914.841 148.711 914.841 153.967C914.841 159.223 910.584 163.48 905.328 163.48C900.072 163.48 895.815 159.223 895.815 153.967Z" fill="#009090"/>
<path d="M622.802 115.444H598.41V130.823H622.802V115.444Z" fill="#E7EEFD"/>
<path d="M661.297 115.444H636.905V130.823H661.297V115.444Z" fill="#E7EEFD"/>
<path d="M698.177 115.444H673.779V130.823H698.177V115.444Z" fill="#E7EEFD"/>
<path d="M841.342 115.444H816.95V130.823H841.342V115.444Z" fill="#E7EEFD"/>
<path d="M879.843 115.444H855.445V130.823H879.843V115.444Z" fill="#E7EEFD"/>
<path d="M916.717 115.444H892.325V130.823H916.717V115.444Z" fill="#E7EEFD"/>
<path d="M798.236 115.181H716.236V183.181H798.236V115.181Z" fill="#1C468A"/>
<path d="M494.07 102.996H409.111C401.379 102.996 395.111 109.264 395.111 116.996V228.334C395.111 236.066 401.379 242.334 409.111 242.334H494.07C501.802 242.334 508.07 236.066 508.07 228.334V116.996C508.07 109.264 501.802 102.996 494.07 102.996Z" fill="#293F7C"/>
<path d="M490.294 172.948C490.294 194.326 472.966 211.654 451.588 211.654C430.209 211.654 412.882 194.326 412.882 172.948C412.882 151.569 430.209 134.231 451.588 134.231C472.966 134.231 490.294 151.569 490.294 172.948Z" fill="#F99746"/>
<path d="M490.294 172.948H412.888C412.888 151.569 430.215 134.231 451.593 134.231C472.972 134.231 490.299 151.569 490.299 172.948H490.294Z" fill="#699FF0"/>
<path d="M462.355 159.378H441.454V161.698H462.355V159.378Z" fill="white"/>
<path d="M462.355 154.211H441.454V156.531H462.355V154.211Z" fill="white"/>
<path d="M462.355 149.044H441.454V151.364H462.355V149.044Z" fill="white"/>
<path d="M462.355 143.877H441.454V146.197H462.355V143.877Z" fill="white"/>
<path d="M468.621 135.874H435.182V139.587H468.621V135.874Z" fill="white"/>
<path d="M462.355 129.258H441.454V131.578H462.355V129.258Z" fill="white"/>
<path d="M462.355 124.091H441.454V126.411H462.355V124.091Z" fill="white"/>
<path d="M462.355 118.924H441.454V121.244H462.355V118.924Z" fill="white"/>
<path d="M462.355 113.757H441.454V116.077H462.355V113.757Z" fill="white"/>
<path d="M462.355 108.59H441.454V110.91H462.355V108.59Z" fill="white"/>
<path d="M1117.57 102.996H1030.62C1023.44 102.996 1017.62 108.816 1017.62 115.996V229.334C1017.62 236.514 1023.44 242.334 1030.62 242.334H1117.57C1124.75 242.334 1130.57 236.514 1130.57 229.334V115.996C1130.57 108.816 1124.75 102.996 1117.57 102.996Z" fill="#1C468A"/>
<path d="M1112.8 172.948C1112.8 194.326 1095.47 211.654 1074.09 211.654C1052.71 211.654 1035.39 194.326 1035.39 172.948C1035.39 151.569 1052.71 134.231 1074.09 134.231C1095.47 134.231 1112.8 151.569 1112.8 172.948Z" fill="#F99746"/>
<path d="M1112.8 172.948H1035.39C1035.39 151.569 1052.72 134.231 1074.1 134.231C1095.48 134.231 1112.8 151.569 1112.8 172.948H1112.8Z" fill="#699FF0"/>
<path d="M1084.85 159.378H1063.95V161.698H1084.85V159.378Z" fill="white"/>
<path d="M1084.85 154.211H1063.95V156.531H1084.85V154.211Z" fill="white"/>
<path d="M1084.85 149.044H1063.95V151.364H1084.85V149.044Z" fill="white"/>
<path d="M1084.85 143.877H1063.95V146.197H1084.85V143.877Z" fill="white"/>
<path d="M1091.12 135.874H1057.68V139.587H1091.12V135.874Z" fill="white"/>
<path d="M1084.85 129.258H1063.95V131.578H1084.85V129.258Z" fill="white"/>
<path d="M1084.85 124.091H1063.95V126.411H1084.85V124.091Z" fill="white"/>
<path d="M1084.85 118.924H1063.95V121.244H1084.85V118.924Z" fill="white"/>
<path d="M1084.85 113.757H1063.95V116.077H1084.85V113.757Z" fill="white"/>
<path d="M1084.85 108.59H1063.95V110.91H1084.85V108.59Z" fill="white"/>
<path d="M661.297 123.187H636.905V130.873H661.297V123.187Z" fill="#699FF0"/>
<path d="M698.177 123.187H673.779V130.873H698.177V123.187Z" fill="#699FF0"/>
<path d="M622.802 123.187H598.41V130.873H622.802V123.187Z" fill="#699FF0"/>
<path d="M841.342 123.187H816.95V130.873H841.342V123.187Z" fill="#699FF0"/>
<path d="M879.843 123.187H855.445V130.873H879.843V123.187Z" fill="#699FF0"/>
<path d="M916.717 123.187H892.325V130.873H916.717V123.187Z" fill="#699FF0"/>
<path d="M729.307 152.953C729.307 137.768 741.661 125.413 756.84 125.413C772.02 125.413 784.379 137.768 784.379 152.953H785.617C785.617 137.085 772.708 124.181 756.846 124.181C740.984 124.181 728.075 137.091 728.075 152.953H729.312H729.307Z" fill="#70A1EF"/>
<path d="M739.924 152.953C739.924 143.623 747.511 136.036 756.84 136.036C766.17 136.036 773.757 143.623 773.757 152.953H774.517C774.517 143.207 766.586 135.276 756.84 135.276C747.095 135.276 739.164 143.207 739.164 152.953H739.924Z" fill="#70A1EF"/>
<path d="M746.712 152.953C746.712 147.369 751.257 142.824 756.84 142.824C762.424 142.824 766.969 147.369 766.969 152.953H767.424C767.424 147.114 762.673 142.369 756.84 142.369C751.007 142.369 746.257 147.12 746.257 152.953H746.712Z" fill="#70A1EF"/>
<path d="M526.613 119.296C527.046 107.68 536.819 98.6111 548.435 99.044C560.052 99.4769 569.12 109.25 568.687 120.867C568.254 132.483 558.481 141.551 546.865 141.119C535.249 140.686 526.18 130.912 526.613 119.296Z" fill="#BDD1F9"/>
<path d="M548.469 98.1616C536.381 97.7065 526.174 107.175 525.725 119.263C525.275 131.351 534.738 141.557 546.831 142.007C558.919 142.456 569.12 132.993 569.57 120.9C570.025 108.812 560.557 98.6112 548.469 98.1616ZM567.799 120.839C567.383 131.95 558.009 140.647 546.898 140.236C535.787 139.82 527.085 130.44 527.495 119.329C527.912 108.218 537.291 99.5158 548.402 99.932C559.513 100.348 568.216 109.728 567.799 120.839Z" fill="#131375"/>
<path d="M556.194 107.558L546.227 119.113L549.074 121.055L556.194 107.558Z" fill="#91B5F8"/>
<path d="M539.106 132.61L549.074 121.055L546.227 119.113L539.106 132.61Z" fill="#91B5F8"/>
<path d="M546.227 119.113C546.765 118.325 547.836 118.125 548.624 118.658C549.412 119.196 549.612 120.267 549.079 121.055C548.541 121.843 547.47 122.043 546.682 121.51C545.894 120.972 545.694 119.901 546.227 119.113Z" fill="#131375"/>
<path d="M953.974 119.296C954.407 107.68 964.18 98.6111 975.796 99.044C987.413 99.4769 996.481 109.25 996.048 120.867C995.615 132.483 985.842 141.551 974.226 141.119C962.61 140.686 953.541 130.912 953.974 119.296Z" fill="#BDD1F9"/>
<path d="M975.83 98.1616C963.742 97.7065 953.535 107.175 953.086 119.263C952.636 131.351 962.105 141.557 974.193 142.007C986.28 142.456 996.481 132.993 996.931 120.9C997.386 108.812 987.918 98.6112 975.83 98.1616ZM995.16 120.839C994.744 131.95 985.37 140.647 974.259 140.236C963.148 139.82 954.446 130.44 954.856 119.329C955.273 108.218 964.652 99.5158 975.763 99.932C986.874 100.348 995.577 109.728 995.16 120.839Z" fill="#131375"/>
<path d="M983.555 107.558L973.588 119.113L976.435 121.055L983.555 107.558Z" fill="#91B5F8"/>
<path d="M966.467 132.61L976.435 121.055L973.588 119.113L966.467 132.61Z" fill="#91B5F8"/>
<path d="M973.587 119.113C974.126 118.325 975.197 118.125 975.985 118.658C976.773 119.196 976.973 120.267 976.44 121.055C975.902 121.843 974.831 122.043 974.043 121.51C973.255 120.978 973.055 119.901 973.587 119.113Z" fill="#131375"/>
<path d="M437.352 576.916H-19.7181L-60 383.104V158.934C-57.3859 157.846 -54.6554 156.886 -51.8193 156.059C-43.7774 153.695 -34.8752 152.402 -25.3292 152.369L40.0609 152.147L236.964 151.469H236.975L266.279 151.37C307.138 151.231 345.877 174.297 358.825 204.722C360.335 208.257 361.489 211.892 362.261 215.6L390.666 352.274L413.948 464.301L420.852 497.523L437.352 576.916Z" fill="#009090"/>
<path d="M1639.96 158.279V390.952L1601.3 576.916H1144.23L1168.49 460.221L1172.22 442.239L1190.92 352.274L1219.33 215.6C1220.1 211.892 1221.25 208.257 1222.76 204.722C1235.71 174.297 1274.45 151.231 1315.31 151.37L1347.25 151.48C1347.25 151.48 1347.26 151.48 1347.27 151.48L1602.32 152.352L1606.91 152.369C1619.13 152.407 1630.3 154.522 1639.95 158.274L1639.96 158.279Z" fill="#009090"/>
<path d="M1639.95 155.943C1632.76 153.656 1624.81 152.402 1616.3 152.369L1602.31 152.313L1351.95 151.37C1350.39 151.37 1348.83 151.397 1347.28 151.48C1347.27 151.48 1347.26 151.48 1347.25 151.48C1311.98 153.195 1279.29 175.584 1268.05 204.722C1266.68 208.257 1265.63 211.892 1264.93 215.6L1239.18 352.274L1222.01 443.416L1218.79 460.51L1196.85 576.916H1611.22L1639.96 424.38V424.352V155.943H1639.95Z" fill="#009090"/>
</svg>
