<svg width="1512" height="86" viewBox="0 0 1512 86" fill="none" xmlns="http://www.w3.org/2000/svg">
<path d="M1606.95 -19V33.4111C1606.95 33.4111 1104.5 86.7999 733.04 85.9909C727.301 85.9794 721.596 85.9564 715.924 85.9142C708.509 85.8644 701.15 85.7915 693.857 85.6957C363.549 81.2977 -9.92205 43.9247 -93 35.2209V-19H1606.95Z" fill="#009090"/>
<path d="M1606.95 -19V25.9227C1606.95 25.9227 1104.5 79.3115 733.04 78.4987C727.301 78.4872 721.596 78.4642 715.924 78.422C708.509 78.3721 701.15 78.2993 693.857 78.2034C363.549 73.8055 -9.92205 36.4364 -93 27.7325V-19H1606.95Z" fill="#001616"/>
</svg>
