<svg version="1.2" xmlns="http://www.w3.org/2000/svg" viewBox="0 0 597 426" width="597" height="426"><defs><clipPath clipPathUnits="userSpaceOnUse" id="cp1"><path d="m225.33 152.05l10.84 4.5-4.49 10.84-10.85-4.5z"/></clipPath><clipPath clipPathUnits="userSpaceOnUse" id="cp2"><path d="m62 286.82h493v86h-493zm76.6 9.4q-6.3-6.4-15.3-6.4h-58.3v6.7h58.3q6.2 0 10.6 4.4 4.4 4.4 4.4 10.6 0 6.2-4.4 10.6-4.4 4.3-10.6 4.3h-58.3v43.4h6.7v-36.6h51.6q6.2 0 10.6 4.4 4.4 4.3 4.4 10.5v21.7h6.7v-21.7q0-5.7-2.8-10.5-2.7-4.9-7.3-7.8 4.6-2.9 7.3-7.7 2.8-4.9 2.8-10.6 0-9-6.4-15.3zm21.4 33.6q0 16.6 11.7 28.3 11.7 11.7 28.3 11.7 16.6 0 28.3-11.7 11.7-11.7 11.7-28.3 0-16.6-11.7-28.3-11.7-11.7-28.3-11.7-16.6 0-28.3 11.7-11.7 11.7-11.7 28.3zm11.1 16.7q-4.4-7.7-4.4-16.7 0-9 4.4-16.7 4.5-7.7 12.2-12.1 7.7-4.5 16.7-4.5 9 0 16.7 4.5 7.7 4.4 12.1 12.1 4.5 7.7 4.5 16.7 0 9-4.5 16.7-4.4 7.7-12.1 12.2-7.7 4.4-16.7 4.4-9 0-16.7-4.4-7.7-4.5-12.2-12.2zm110.6-13.3v-6.8h-26.7v6.8zm21.68 9.5v-52.9h-6.7v80h6.7v-18.3l20.6-17.3 42.3 35.6h10.4l-47.5-40 47.5-40h-10.4zm84.96-41.2q-11.7 11.7-11.7 28.3 0 16.6 11.7 28.3 11.7 11.7 28.3 11.7h40v-6.7h-40q-9 0-16.7-4.4-7.7-4.5-12.2-12.2-4.4-7.7-4.4-16.7 0-9 4.4-16.7 4.5-7.7 12.2-12.1 7.7-4.5 16.7-4.5h40v-6.7h-40q-16.6 0-28.3 11.7zm38.1 33.3q2.1 0 3.5-1.4 1.5-1.5 1.5-3.6 0-2.1-1.5-3.5-1.4-1.5-3.5-1.5-2.1 0-3.6 1.5-1.4 1.4-1.4 3.5 0 2.1 1.4 3.6 1.5 1.4 3.6 1.4zm81.8-38.3v73.3h6.8v-73.3h36.6v-6.7h-80v6.7z"/></clipPath></defs><style>.a{fill:#32f8ff}.b{fill:#ffac33}.c{fill:#ffcc4d}.d{opacity:.3;fill:#202020}.e{fill:none;stroke:#001616;stroke-linecap:round;stroke-linejoin:round;stroke-width:7}.f{fill:#e8f4fa}.g{fill:#0c3dc8}.h{fill:#d52a33}.i{fill:#f3e02f}.j{fill:#001616}</style><path fill-rule="evenodd" class="a" d="m330.4 77c-8.8-2.9-18.2-4.4-27.9-4.4-48.9 0-88.6 39.6-88.6 88.5 0 14.5 3.5 28.2 9.7 40.3q0.4-0.5 0.8-0.9 1.7-1.8 3.8-3.2c-5.3-10.9-8.3-23.2-8.3-36.2 0-45.6 37-82.5 82.6-82.5 7.1 0 14 0.8 20.5 2.5q3.7-2.4 7.4-4.1zm52.4 64.9c1.5 6.2 2.3 12.6 2.3 19.2 0 45.6-37 82.6-82.6 82.6-14.4 0-28-3.7-39.8-10.2q-1 1.3-2.1 2.4-1 1.1-2.2 2c13 7.5 28 11.8 44.1 11.8 48.9 0 88.6-39.7 88.6-88.6 0-9.3-1.5-18.2-4.1-26.6q-1.8 3.7-4.2 7.4z"/><path class="b" d="m232.1 229.1c0 0-0.3-23.9 8.7-32.9 8.9-9.1 32.8-8.7 32.8-8.7 0 0 0.2 23.3-8.7 32.3-8.9 9.1-32.8 9.3-32.8 9.3z"/><path class="c" d="m256 216.9c6.6 0 11.9-5.4 11.8-12 0-6.6-5.4-11.9-12-11.8-6.6 0-11.9 5.4-11.9 12 0.1 6.6 5.5 11.9 12.1 11.8z"/><path class="a" d="m259.6 176.9l23.8-29.9c-11.8-2.8-24.1-3.1-36-0.7-13.2 3.4-15.1 28.4-15.2 40.2 0 0.6 0.1 1.3 0.5 1.9 0.3 0.5 0.8 1 1.3 1.3 0.6 0.4 1.2 0.5 1.9 0.5 0.7 0 1.3-0.2 1.9-0.5z"/><path class="d" d="m247.6 157.6c9.2-2 18.7-2.3 28-0.8l7.8-9.7c-11.8-2.9-24.1-3.2-36-0.8-13.2 3.4-15.1 28.3-15.2 40.2 0 0.7 0.2 1.4 0.6 2 1.2-12.5 4.4-28.3 14.8-30.9z"/><path class="e" d="m259.6 176.9l23.8-29.9c-11.8-2.8-24.1-3.1-36-0.7-13.2 3.4-15.1 28.4-15.2 40.2 0 0.6 0.1 1.3 0.5 1.9 0.3 0.5 0.8 1 1.3 1.3 0.6 0.4 1.2 0.5 1.9 0.5 0.7 0 1.3-0.2 1.9-0.5z"/><path class="a" d="m288.7 205.6l29.5-24.3c3.1 11.8 3.5 24.1 1.3 36-3 13.3-27.8 15.5-39.8 15.8-0.6 0.1-1.3-0.1-1.8-0.4-0.6-0.3-1.1-0.8-1.4-1.3-0.4-0.6-0.6-1.3-0.6-1.9 0-0.7 0.2-1.3 0.5-1.9z"/><path class="d" d="m308.1 217.4c1.9-9.3 2-18.8 0.3-28.2l9.6-7.9c3.1 11.8 3.6 24.1 1.3 36-2.9 13.3-27.7 15.5-39.7 15.8-0.7 0-1.5-0.2-2.1-0.5 12.5-1.2 28.2-4.9 30.6-15.2z"/><path class="e" d="m288.7 205.6l29.5-24.3c3.1 11.8 3.5 24.1 1.3 36-3 13.3-27.8 15.5-39.8 15.8-0.6 0.1-1.3-0.1-1.8-0.4-0.6-0.3-1.1-0.8-1.4-1.3-0.4-0.6-0.6-1.3-0.6-1.9 0-0.7 0.2-1.3 0.5-1.9z"/><path class="f" d="m367.8 154.8c23-24.4 15.4-54.1 11.7-64.6-0.4-1.2-1.1-2.3-2-3.2-1-0.9-2.1-1.6-3.3-2.1-10.6-3.5-40.6-10.5-64.8 12.8-29.8 28.5-50 78.9-50 78.9l30.1 29.4c0 0 50-21.2 78.3-51.2z"/><path class="g" d="m367.8 154.8c23-24.4 15.4-54.1 11.7-64.6-0.4-1.2-1.1-2.3-2-3.2-1-0.9-2.1-1.6-3.3-2.1-10.6-3.5-40.6-10.5-64.8 12.8-29.8 28.5-50 78.9-50 78.9l30.1 29.4c0 0 50-21.2 78.3-51.2z"/><path class="h" d="m364.4 156.3c-33-14.5-51.7-43.5-56.9-56.1l6.6-6.7 58.8 54.2c-3.8 5.2-8.7 8.3-8.5 8.6z"/><path fill-rule="evenodd" class="h" d="m378.7 90.8c3.6 10.5 11.1 40.2-11.7 64.6q-0.9 0.9-1.8 1.9l-58.1-57.2q0.9-0.9 1.8-1.8c24-23.3 53.9-16.3 64.4-12.8 1.2 0.5 2.4 1.1 3.3 2.1 0.9 0.9 1.6 2 2.1 3.2z"/><path fill-rule="evenodd" class="a" d="m287.9 124.2c5.8-8.6 12.3-17.1 19.5-24.4 7.4 15 26.7 42 58.6 57-6.9 6.9-14.8 13.2-22.8 18.9l-0.1-0.1c-15.5-0.4-53.9-40.8-55.2-51.4z"/><path fill-rule="evenodd" class="i" d="m382.3 124.2c0.5-1.3-0.3-2.6-1.6-3-23.9-6.6-35.8-27.3-39.6-39-0.3-1.3-1.7-2.1-2.9-1.7-1.2 0.3-2 1.5-1.7 2.7q0.9 3.7 2.2 7c0.7 1.9 0.1 4.1-1.7 5.2l-0.8 0.5c-2 1.1-2.6 3.5-1.5 5.5l2.8 4.6c1.1 1.9 3.5 2.5 5.4 1.4l1.1-0.7c1.8-1 4-0.5 5.3 0.9q2 2.3 4.2 4.2c1.5 1.5 1.9 3.9 0.6 5.6l-0.4 0.6c-1.3 1.8-0.9 4.3 0.9 5.6l4.3 3.2c1.8 1.3 4.3 0.9 5.6-0.9l1.2-1.7c1.2-1.6 3.3-2.1 5.1-1.4 3.3 1.4 6.4 2.4 9 2.9 1.1 0.3 2.2-0.4 2.5-1.5z"/><path fill-rule="evenodd" class="g" d="m360.4 159.8c-2.2-0.3-5.3-1.7-6.6-2.3-19.5-9.2-38.9-31.7-47.2-45.5q-0.2-0.3-0.5-0.8-0.3-0.6-0.6-1.1-0.1-0.2-0.2-0.3c-0.7-1.3-1.4-2.8-1.8-4.1l-1.1 2c-1.7-0.5-3.6-0.2-4.8 1.1-1 1-1.3 2.6-0.8 3.9q0.8 2 1.8 4.1c0.4 0.7 0 1.7-0.6 2.2l-3.6 3c-1.6 1.5-1.8 4-0.4 5.7l10.2 11.9c1.5 1.7 4 1.8 5.7 0.4l0.1-0.1c1.6-1.4 4.1-1.2 5.6 0.4q3.3 3.5 6.7 6.7c1.6 1.4 1.7 3.9 0.4 5.6-1.5 1.7-1.2 4.2 0.5 5.6l12 10.1c1.7 1.4 4.3 1.1 5.7-0.6l2.9-3.5c0.4-0.5 1-0.7 1.5-0.4 4 1.9 7.6 2.9 10.4 2.8 0.7 0 1.4-0.4 1.9-0.9 1.3-1.2 1.5-3 1-4.5z"/><path class="a" d="m292.2 148l-5.6-8.5c-2.1-3.1-6.6-3.1-8.5 0.2-5.9 10.3-12.9 25.1-17 34.3-0.9 2.1-0.4 4.4 1.2 6l24.2 23.9c1.7 1.7 4.3 2 6.4 0.8l31.9-17.9c3.5-2 3.7-6.9 0.3-9.1l-8.3-5.4c-1.7-1.2-4-1.2-5.8-0.1l-18.9 12.1c-2.1 1.4-4.8 1.1-6.6-0.7l-4.4-4.3c-1.8-1.7-2.1-4.5-0.7-6.6l11.9-18.9c1.1-1.8 1.1-4-0.1-5.8z"/><path fill-rule="evenodd" class="a" d="m316.1 193.2l17.7-9.9-11.3-7.4z"/><path fill-rule="evenodd" class="a" d="m289.2 143.6l-6.3-9.4c-2.9 4.2-6.4 10.7-9.9 17.6z"/><path class="d" d="m318.5 114.1c23.3-22.5 52.1-16.5 63.5-13q-1-5.5-2.9-10.9c-0.4-1.2-1.2-2.3-2.1-3.3-1-0.9-2.2-1.6-3.4-2-10.5-3.5-40.4-10.5-64.4 12.8-29.7 28.5-49.8 78.9-49.8 78.9l11.5 11.3c6-13.6 23.7-50.7 47.6-73.8z"/><path class="e" d="m367.3 154.8c22.8-24.4 15.3-54.1 11.6-64.6-0.4-1.2-1.1-2.3-2.1-3.2-0.9-0.9-2-1.6-3.2-2.1-10.5-3.5-40.4-10.5-64.4 12.8-29.7 28.5-49.8 78.9-49.8 78.9l29.9 29.4c0 0 49.8-21.1 78-51.2z"/><path class="j" d="m259 181.6c1.5-1.6 4.1-1.6 5.7 0l19.5 19.2c1.6 1.5 1.6 4.1 0 5.7l-4.2 4.2c-1.5 1.6-4.1 1.6-5.7 0.1l-19.5-19.2c-1.6-1.6-1.6-4.1 0-5.7z"/><path class="a" d="m272.7 112.9l3.5 4.7c0.6 0.9 2 0.5 2.2-0.5l0.9-5.8 5.6-1.8c1-0.4 1.1-1.8 0.1-2.2l-5.1-2.7-0.1-5.9c0-1-1.3-1.6-2-0.8l-4.2 4.1-5.6-1.8c-1-0.3-1.9 0.7-1.4 1.7l2.6 5.2-3.4 4.8c-0.6 0.8 0.1 2 1.2 1.8z"/><g clip-path="url(#cp1)"><path class="a" d="m227.5 162.1l1.4 1.9c0.3 0.4 0.8 0.2 0.9-0.2l0.4-2.3 2.2-0.8c0.4-0.1 0.5-0.7 0.1-0.9l-2.1-1.1v-2.3c0-0.5-0.5-0.7-0.8-0.4l-1.7 1.7-2.3-0.7c-0.4-0.2-0.8 0.2-0.6 0.6l1.1 2.2-1.4 1.9c-0.2 0.3 0 0.8 0.5 0.8z"/></g><path class="a" d="m363.4 183.8l2.4 3.2c0.4 0.6 1.4 0.4 1.5-0.3l0.6-4 3.9-1.2c0.7-0.3 0.7-1.2 0.1-1.6l-3.6-1.8v-4c0-0.7-0.9-1.1-1.4-0.6l-2.9 2.8-3.8-1.2c-0.7-0.2-1.3 0.5-1 1.1l1.8 3.6-2.3 3.3c-0.5 0.6 0 1.4 0.8 1.3z"/><path class="a" d="m335.4 205l2 2.6c0.3 0.5 1.1 0.3 1.2-0.3l0.5-3.2 3.2-1.1c0.5-0.2 0.6-0.9 0.1-1.2l-3-1.5v-3.3c0-0.6-0.7-0.9-1.2-0.5l-2.3 2.3-3.2-1c-0.5-0.2-1.1 0.4-0.8 0.9l1.5 3-1.9 2.7c-0.4 0.5 0 1.1 0.6 1.1z"/><path class="a" d="m145 311.5q0 5.7-2.8 10.6-2.7 4.8-7.3 7.7 4.6 2.9 7.3 7.8 2.8 4.8 2.8 10.5v21.7h-6.7v-21.7q0-6.2-4.4-10.5-4.4-4.4-10.6-4.4h-51.6v36.6h-6.7v-43.4h58.3q6.2 0 10.6-4.3 4.4-4.4 4.4-10.6 0-6.2-4.4-10.6-4.4-4.4-10.6-4.4h-58.3v-6.7h58.3q9 0 15.3 6.4 6.4 6.3 6.4 15.3zm26.7-10q11.7-11.7 28.3-11.7 16.6 0 28.3 11.7 11.7 11.7 11.7 28.3 0 16.6-11.7 28.3-11.7 11.7-28.3 11.7-16.6 0-28.3-11.7-11.7-11.7-11.7-28.3 0-16.6 11.7-28.3zm11.6 57.2q7.7 4.4 16.7 4.4 9 0 16.7-4.4 7.7-4.5 12.1-12.2 4.5-7.7 4.5-16.7 0-9-4.5-16.7-4.4-7.7-12.1-12.1-7.7-4.5-16.7-4.5-9 0-16.7 4.5-7.7 4.4-12.2 12.1-4.4 7.7-4.4 16.7 0 9 4.4 16.7 4.5 7.7 12.2 12.2zm71.7-25.5v-6.8h26.7v6.8zm111.3-43.4h10.4l-47.5 40 47.5 40h-10.4l-42.3-35.6-20.6 17.3v18.3h-6.7v-12.7-8.8-58.5h6.7v52.9zm50.3 0h40v6.7h-40q-9 0-16.7 4.5-7.7 4.4-12.2 12.1-4.4 7.7-4.4 16.7 0 9 4.4 16.7 4.5 7.7 12.2 12.2 7.7 4.4 16.7 4.4h40v6.7h-40q-16.6 0-28.3-11.7-11.7-11.7-11.7-28.3 0-16.6 11.7-28.3 11.7-11.7 28.3-11.7zm6.2 43.6q-1.4-1.5-1.4-3.6 0-2.1 1.4-3.5 1.5-1.5 3.6-1.5 2.1 0 3.5 1.5 1.5 1.4 1.5 3.5 0 2.1-1.5 3.6-1.4 1.4-3.5 1.4-2.1 0-3.6-1.4zm48.8-36.9v-6.7h80v6.7h-36.6v73.3h-6.8v-73.3z"/><g clip-path="url(#cp2)"><path class="a" d="m142.2 322.1l-2.2-1.2zm-7.3 7.7l-1.3-2.1-3.4 2.1 3.4 2.1zm7.3 7.8l-2.2 1.2v0.1zm2.8 32.2v2.5h2.5v-2.5zm-6.7 0h-2.5v2.5h2.5zm-4.4-32.2l-1.7 1.7v0.1zm-62.2-4.4v-2.5h-2.5v2.5zm0 36.6v2.5h2.5v-2.5zm-6.7 0h-2.5v2.5h2.5zm0-43.4v-2.5h-2.5v2.5zm75-5.6q-2.4 4.3-6.5 6.8l2.7 4.3q5.2-3.3 8.2-8.6zm0.7-9.4c0-4.8-1.7-9-5.1-12.4l-3.5 3.6c2.4 2.4 3.6 5.3 3.6 8.8zm-75.8-15h-2.5v2.5h2.5zm0-6.7v-2.5h-2.5v2.5zm73.6 6.4l-1.7 1.8zm3.9 15.3q0 5-2.5 9.3l4.4 2.5q3.1-5.5 3.1-11.8zm-8.6 10.6l1.7 1.8h0.1zm-0.4 9.8q4.1 2.5 6.5 6.9l4.3-2.5q-3-5.4-8.1-8.7zm6.5 7q2.4 4.2 2.4 9.2h5q0-6.3-3.1-11.7zm2.4 9.2v21.7h5v-21.7zm2.5 19.2h-6.7v5h6.7zm-4.2 2.5v-21.7h-5v21.7zm0-21.7c0-4.8-1.7-8.9-5.1-12.3l-3.5 3.6c2.4 2.4 3.6 5.2 3.6 8.7zm-5.1-12.3c-3.4-3.4-7.6-5.1-12.4-5.1v5c3.5 0 6.4 1.2 8.9 3.7zm-12.4-5.2h-51.6v5h51.6zm-54.1 2.5v36.6h5v-36.6zm2.5 34.1h-6.7v5h6.7zm-4.2 2.5v-43.4h-5v43.4zm-2.5-40.9h58.3v-5h-58.3zm58.3 0c4.8 0 8.9-1.6 12.3-5l-3.4-3.5c-2.5 2.4-5.4 3.5-8.9 3.5zm12.4-5c3.4-3.4 5.1-7.6 5.1-12.4h-5c0 3.5-1.2 6.4-3.7 8.9zm0-24.8c-3.4-3.4-7.5-5.1-12.3-5.1v5c3.4 0 6.3 1.2 8.8 3.7zm-1.8 1.7l-1.7 1.8zm-10.6-6.9h-58.3v5h58.3zm-55.8 2.5v-6.7h-5v6.7zm-2.5-4.2h58.3v-5h-58.3zm58.3 0c5.3 0 9.8 1.9 13.5 5.7l3.5-3.5c-4.6-4.8-10.4-7.2-17-7.2zm13.5 5.7c3.8 3.7 5.7 8.2 5.7 13.5h5c0-6.7-2.4-12.4-7.2-17.1zm36.6 5.3c7.4-7.3 16.2-11 26.6-11v-5c-11.8 0-21.8 4.2-30.1 12.5zm26.5-11c10.4 0 19.2 3.7 26.6 11l3.5-3.6c-8.3-8.2-18.3-12.4-30.1-12.4zm37.5 37.5c0 10.4-3.6 19.2-10.9 26.5l3.5 3.6c8.3-8.3 12.4-18.4 12.4-30.1zm-37.5 37.5c-10.4 0-19.2-3.6-26.5-11l-3.5 3.6c8.2 8.3 18.3 12.4 30 12.4zm-16.7-8.6l-1.2 2.2zm43.2-2.4c-7.3 7.3-16.1 11-26.5 11v5c11.7 0 21.8-4.2 30.1-12.4zm2.2-9.9l-2.1-1.2zm-2.3-43.3c7.3 7.4 11 16.2 11 26.6h5c0-11.7-4.2-21.8-12.5-30.1zm-9.8-2.3l-1.3 2.2h0.1zm-33.4 0l1.2 2.2zm-20.8 28.8c0-10.4 3.7-19.2 11-26.6l-3.6-3.5c-8.2 8.3-12.4 18.3-12.4 30.1zm11 26.5c-7.3-7.3-11-16.1-11-26.5h-5c0 11.7 4.2 21.8 12.4 30zm8.6-57.5q-8.2 4.8-13.1 13l4.3 2.6q4.2-7.2 11.3-11.2zm48.9 13q-4.7-8.3-13-13l-2.5 4.3q7.1 4.1 11.2 11.2zm-2.2 1.2l-2.2 1.3h0.1zm-10.9 47.8q8.3-4.9 13-13.2l-4.3-2.4q-4.1 7.1-11.2 11.2zm-1.3-2.1l1.3 2.1zm-47.8-10.9q4.9 8.3 13.1 13.1l2.6-4.3q-7.2-4.2-11.3-11.3zm2.1-1.3l-2.2 1.3h0.1zm0-33.4l-2.2-1.3zm10.9 47.8q8.3 4.7 18 4.7v-5q-8.4 0-15.5-4zm18 4.7q9.6 0 17.9-4.7l-2.5-4.4q-7.1 4.1-15.4 4.1zm28.3-7.5l1.7 1.8zm2.7-10.4q4.8-8.3 4.8-17.9h-5q0 8.3-4.1 15.4zm4.8-18q0-9.6-4.8-17.9l-4.3 2.5q4.1 7.1 4.1 15.4zm-7.5-28.3l1.8-1.7zm-10.4-2.7q-8.2-4.8-17.9-4.8v5q8.3 0 15.4 4.1zm-17.9-4.8q-9.7 0-18 4.8l2.5 4.3q7.1-4.1 15.5-4.1zm-28.3 7.5l-1.8-1.8zm-2.8 10.4q-4.7 8.3-4.7 17.9h5q0-8.3 4.1-15.4zm-4.8 17.9q0 9.7 4.8 17.9l4.3-2.4q-4.1-7.2-4.1-15.5zm7.5 28.3l-1.7 1.8zm83.3-24.9h-2.5v2.5h2.5zm0-6.8v-2.5h-2.5v2.5zm26.7 0h2.5v-2.5h-2.5zm0 6.8v2.5h2.5v-2.5zm-24.2 0v-6.8h-5v6.8zm-2.5-4.3h26.7v-5h-26.7zm24.2-2.5v6.8h5v-6.8zm2.5 4.3h-26.7v5h26.7zm84.6-40.9v-2.5h-1l-0.7 0.6zm10.4 0l1.7 1.9 5.2-4.4h-6.9zm-71.6 54.8l62.9-52.9-3.3-3.9-62.9 52.9zm71.7 25.2v2.5h6.9l-5.3-4.4zm-10.4 0l-1.6 1.9 0.7 0.6h0.9zm-42.3-35.6l1.6-1.9-1.6-1.3-1.6 1.3zm-20.6 17.3l-1.6-1.9-0.9 0.7v1.2zm0 18.3v2.5h2.5v-2.5zm-6.7 0h-2.5v2.5h2.5zm0-80v-2.5h-2.5v2.5zm6.7 0h2.5v-2.5h-2.5zm0 52.9h-2.5v5.4l4.1-3.5zm62.9-50.4h10.4v-5h-10.4zm8.8-4.4l-47.5 40 3.2 3.8 47.5-40zm-47.5 43.9l47.5 40 3.3-3.9-47.5-40zm49.1 35.6h-10.4v5h10.4zm-8.8 0.6l-42.3-35.6-3.2 3.8 42.3 35.6zm-45.6-35.6l-20.6 17.3 3.3 3.9 20.6-17.3zm-21.5 19.2v18.3h5v-18.3zm2.5 15.8h-6.7v5h6.7zm-4.2 2.5v-12.7h-5v12.7zm0-12.7v-8.8h-5v8.8zm0-8.8v-58.5h-5v58.5zm-2.5-56h6.7v-5h-6.7zm4.2-2.5v52.9h5v-52.9zm28.3 40l-1.6-1.9-2.3 1.9 2.3 1.9zm127.4-40h2.5v-2.5h-2.5zm0 6.7v2.5h2.5v-2.5zm-66.5 6.8c7.3-7.4 16.1-11 26.5-11v-5c-11.7 0-21.8 4.1-30 12.4zm-11 26.5c0-10.4 3.6-19.2 11-26.5l-3.6-3.5c-8.3 8.3-12.4 18.3-12.4 30zm11 26.6c-7.4-7.3-11-16.1-11-26.6h-5c0 11.8 4.1 21.8 12.4 30.1zm26.6 11c-10.5 0-19.3-3.7-26.6-11l-3.5 3.6c8.3 8.2 18.3 12.4 30.1 12.4zm40-4.2h2.5v-2.5h-2.5zm0 6.7v2.5h2.5v-2.5zm-71.1-22.1q4.8 8.3 13.1 13.1l2.5-4.3q-7.1-4.1-11.3-11.3zm13.1-48.9q-8.3 4.7-13.1 13l4.3 2.5q4.2-7.1 11.3-11.2zm24.2 34.6l-1.9 1.7 0.1 0.1zm1.1-3.6c0-0.8 0.3-1.3 0.7-1.7l-3.5-3.5c-1.5 1.4-2.2 3.2-2.2 5.2zm6-3.5l-1.8 1.7 0.1 0.1v0.1zm-1 3.5c0 0.7-0.2 1.3-0.7 1.8l3.5 3.5c1.5-1.4 2.2-3.3 2.2-5.3zm-12.3-37.5h40v-5h-40zm37.5-2.5v6.7h5v-6.7zm2.5 4.2h-40v5h40zm-40 0q-9.6 0-17.9 4.8l2.5 4.3q7.1-4.1 15.4-4.1zm-28.3 7.5l-1.7-1.8zm-2.8 10.4q-4.7 8.2-4.7 17.9h5q0-8.4 4-15.5zm-4.7 18q0 9.6 4.7 17.9l4.4-2.5q-4.1-7.1-4.1-15.4zm7.5 28.3l-1.8 1.7zm10.4 2.8q8.3 4.7 17.9 4.7v-5q-8.3 0-15.4-4zm17.9 4.7h40v-5h-40zm37.5-2.5v6.7h5v-6.7zm2.5 4.2h-40v5h40zm-56.7-8.6l-1.2 2.2zm-12.2-12.2l-2.2 1.2zm0-33.4l-2.1-1.2zm12.2-12.1l1.2 2.2zm24.7 30.6c-0.4-0.5-0.7-1.1-0.7-1.8h-5c0 2 0.7 3.8 2.1 5.3zm-0.1-3.7c0.6-0.5 1.1-0.7 1.9-0.7v-5c-2.1 0-3.9 0.7-5.4 2.2zm-1.8-1.8l1.8 1.8zm3.6 1c0.7 0 1.2 0.2 1.7 0.7l3.6-3.4c-1.4-1.5-3.2-2.3-5.3-2.3zm1.8 0.8c0.5 0.5 0.7 1 0.7 1.7h5c0-2.1-0.8-3.9-2.3-5.3zm-0.1 3.5c-0.4 0.4-0.9 0.6-1.7 0.6v5c2 0 3.8-0.7 5.3-2.1zm1.7 1.8l1.8 1.7zm-3.5-1.1c-0.8 0-1.4-0.2-1.9-0.7l-3.4 3.7c1.5 1.3 3.3 2 5.3 2zm45.2-35.8h-2.5v2.5h2.5zm0-6.7v-2.5h-2.5v2.5zm80 0h2.5v-2.5h-2.5zm0 6.7v2.5h2.5v-2.5zm-36.6 0v-2.5h-2.5v2.5zm0 73.3v2.5h2.5v-2.5zm-6.8 0h-2.5v2.5h2.5zm0-73.3h2.5v-2.5h-2.5zm-34.1 0v-6.7h-5v6.7zm-2.5-4.2h80v-5h-80zm77.5-2.5v6.7h5v-6.7zm2.5 4.2h-36.6v5h36.6zm-39.1 2.5v73.3h5v-73.3zm2.5 70.8h-6.8v5h6.8zm-4.3 2.5v-73.3h-5v73.3zm-2.5-75.8h-36.6v5h36.6z"/></g></svg>